<svg xmlns="http://www.w3.org/2000/svg" version="1.1" xmlns:xlink="http://www.w3.org/1999/xlink" xmlns:svgjs="http://svgjs.dev/svgjs" width="1437" height="573" preserveAspectRatio="none" viewBox="0 0 1437 573"><g mask="url(&quot;#SvgjsMask1047&quot;)" fill="none"><rect width="1437" height="573" x="0" y="0" fill="#0e2a47"></rect><path d="M160.94155888433517 197.0589512150374L230.21737657048845 345.6214216669514 378.77984702240246 276.3456039807981 309.5040293362492 127.78313352888411z" fill="rgba(28, 83, 142, 0.4)" class="triangle-float2"></path><path d="M130.813,590.979C171.831,590.166,215.05,580.107,235.956,544.807C257.18,508.97,247.654,464.737,226.996,428.571C206.139,392.057,172.861,361.204,130.813,360.73C88.079,360.249,52.733,389.68,30.804,426.362C8.181,464.206,-4.702,511.445,18.19,549.126C40.477,585.812,87.896,591.83,130.813,590.979" fill="rgba(28, 83, 142, 0.4)" class="triangle-float1"></path><path d="M792.1,163.216C817.303,163.317,838.004,146.913,852.001,125.954C868.214,101.676,883.183,72.428,870.186,46.287C856.172,18.101,823.536,3.855,792.1,5.476C763.145,6.969,739.62,27.666,726.815,53.678C715.444,76.778,719.846,103.358,733.028,125.475C745.85,146.988,767.056,163.115,792.1,163.216" fill="rgba(28, 83, 142, 0.4)" class="triangle-float3"></path><path d="M455.6739511149153 186.1158945372L504.83570770552336 337.4202234547313 656.1400366230546 288.2584668641232 606.9782800324466 136.95413794659197z" fill="rgba(28, 83, 142, 0.4)" class="triangle-float3"></path><path d="M761.077,418.419C781.903,418.838,801.812,406.745,810.781,387.945C818.827,371.079,809.184,353.049,800.035,336.755C790.597,319.947,780.353,299.524,761.077,299.427C741.72,299.329,730.567,319.294,721.431,336.359C712.982,352.141,706.933,369.894,714.72,386.012C723.51,404.207,740.874,418.012,761.077,418.419" fill="rgba(28, 83, 142, 0.4)" class="triangle-float3"></path><path d="M962.186815498399 490.5345147268804L840.0154548796693 503.25753578835463 901.6029636893131 591.21361373506z" fill="rgba(28, 83, 142, 0.4)" class="triangle-float1"></path><path d="M669.817,310.45C687.704,310.801,706.332,304.894,715.244,289.382C724.131,273.914,718.691,255.516,710.479,239.679C701.337,222.049,689.654,202.707,669.817,201.777C648.92,200.797,631.236,216.774,621.968,235.529C613.673,252.315,617.298,271.878,627.376,287.658C636.64,302.163,652.609,310.112,669.817,310.45" fill="rgba(28, 83, 142, 0.4)" class="triangle-float3"></path><path d="M1008.6237991712063 325.45912722603094L1055.673803138215 247.15477097922798 930.3194429244033 278.4091232590223z" fill="rgba(28, 83, 142, 0.4)" class="triangle-float1"></path><path d="M806.7071936157871 545.5631300033721L905.2124819074385 614.537275418707 875.6813390311221 447.05784171172064z" fill="rgba(28, 83, 142, 0.4)" class="triangle-float2"></path></g><defs><mask id="SvgjsMask1047"><rect width="1437" height="573" fill="#ffffff"></rect></mask><style>
                @keyframes float1 {
                    0%{transform: translate(0, 0)}
                    50%{transform: translate(-10px, 0)}
                    100%{transform: translate(0, 0)}
                }

                .triangle-float1 {
                    animation: float1 5s infinite;
                }

                @keyframes float2 {
                    0%{transform: translate(0, 0)}
                    50%{transform: translate(-5px, -5px)}
                    100%{transform: translate(0, 0)}
                }

                .triangle-float2 {
                    animation: float2 4s infinite;
                }

                @keyframes float3 {
                    0%{transform: translate(0, 0)}
                    50%{transform: translate(0, -10px)}
                    100%{transform: translate(0, 0)}
                }

                .triangle-float3 {
                    animation: float3 6s infinite;
                }
            </style></defs></svg>