<?xml version="1.0" encoding="utf-8"?>
<!-- Generator: Adobe Illustrator 22.1.0, SVG Export Plug-In . SVG Version: 6.00 Build 0)  -->
<svg version="1.1" id="Icon_Set" xmlns="http://www.w3.org/2000/svg" xmlns:xlink="http://www.w3.org/1999/xlink" x="0px" y="0px"
	 viewBox="0 0 512 512" style="enable-background:new 0 0 512 512;" xml:space="preserve">
<style type="text/css">
	.st0{fill:#F0C48A;}
	.st1{fill:#FD919E;}
	.st2{fill:#4C4372;}
	.st3{fill:#D3E6F8;}
	.st4{fill:#A4CFF2;}
	.st5{fill:#7BABF1;}
	.st6{fill:#FFFFFF;}
	.st7{fill:#E8677D;}
	.st8{fill:none;stroke:#4C4372;stroke-width:12;stroke-linecap:round;stroke-linejoin:round;stroke-miterlimit:10;}
</style>
<g id="Blood_Cells">
	<g>
		<g>
			<circle class="st0" cx="256" cy="256" r="207"/>
		</g>
	</g>
	<g>
		<g>
			<g>
				
					<ellipse transform="matrix(0.7071 -0.7071 0.7071 0.7071 -107.0404 269.9913)" class="st1" cx="272.388" cy="264.205" rx="101.704" ry="66.831"/>
			</g>
			<g>
				<path class="st7" d="M344.304,192.289c-4.796-4.797-10.519-8.328-16.903-10.668c14.213,28.286,1.356,72.977-33.09,107.422
					c-32.419,32.419-73.917,45.721-102.269,35.327c2.176,4.329,4.966,8.286,8.43,11.75c26.099,26.099,79.454,15.059,119.172-24.659
					C359.363,271.743,370.403,218.388,344.304,192.289z"/>
			</g>
			<g>
				<path class="st2" d="M238.031,356.29c-16.837,0-31.309-5.435-41.801-15.926c-14.099-14.1-19.065-35.386-13.984-59.938
					c4.892-23.643,18.616-47.692,38.644-67.72c20.028-20.028,44.078-33.752,67.72-38.645c24.552-5.078,45.84-0.112,59.937,13.985
					v-0.001c0,0.001,0,0.001,0,0.001c14.1,14.098,19.065,35.384,13.985,59.937c-4.893,23.643-18.616,47.692-38.645,67.72
					c-20.027,20.028-44.077,33.753-67.72,38.645C249.887,355.647,243.818,356.29,238.031,356.29z M306.685,184.128
					c-4.958,0-10.191,0.557-15.644,1.686c-21.376,4.423-43.276,16.986-61.667,35.377c-18.391,18.392-30.955,40.291-35.378,61.667
					c-4.234,20.465-0.428,37.874,10.719,49.021c11.147,11.146,28.555,14.955,49.021,10.718
					c21.376-4.423,43.275-16.987,61.666-35.378c18.392-18.392,30.956-40.292,35.379-61.667c4.234-20.465,0.428-37.873-10.719-49.02
					v-0.001C331.884,188.354,320.336,184.128,306.685,184.128z"/>
			</g>
			<g>
				
					<ellipse transform="matrix(0.7071 -0.7071 0.7071 0.7071 -105.8305 267.0704)" class="st7" cx="269.467" cy="261.284" rx="59.051" ry="38.803"/>
			</g>
			<g>
				<path class="st2" d="M249.502,317.268c-10.441,0-19.455-3.408-26.033-9.986c-8.805-8.805-11.932-21.977-8.804-37.089
					c2.938-14.202,11.15-28.617,23.122-40.589c11.972-11.972,26.387-20.184,40.589-23.122c15.112-3.125,28.285,0,37.089,8.805
					c8.806,8.805,11.932,21.977,8.805,37.09c-2.938,14.202-11.15,28.617-23.122,40.588c-11.972,11.972-26.387,20.184-40.589,23.122
					C256.736,316.877,253.037,317.268,249.502,317.268z M289.442,217.369c-13.345,0-29.857,7.406-43.17,20.72
					c-20.333,20.334-26.89,48.135-14.317,60.708c12.572,12.572,40.375,6.017,60.708-14.318
					c20.334-20.333,26.89-48.135,14.317-60.708C302.639,219.43,296.48,217.369,289.442,217.369z"/>
			</g>
		</g>
		<g>
			<g>
				
					<ellipse transform="matrix(0.7071 -0.7071 0.7071 0.7071 -96.1727 161.5342)" class="st1" cx="146.903" cy="196.858" rx="71.333" ry="46.873"/>
			</g>
			<g>
				<path class="st7" d="M197.343,146.418c-3.364-3.364-7.378-5.841-11.855-7.483c9.968,19.839,0.951,51.184-23.208,75.343
					c-22.738,22.738-51.844,32.068-71.729,24.778c1.526,3.036,3.483,5.812,5.913,8.241c18.305,18.305,55.727,10.562,83.585-17.295
					C207.904,202.145,215.648,164.723,197.343,146.418z"/>
			</g>
			<g>
				<path class="st2" d="M122.793,263.237c-12.282,0-22.869-3.992-30.573-11.697c-10.329-10.329-13.986-25.838-10.296-43.669
					c3.501-16.92,13.3-34.109,27.591-48.4c14.292-14.292,31.48-24.091,48.401-27.592c17.832-3.692,33.34-0.033,43.669,10.297v-0.001
					c10.329,10.329,13.986,25.838,10.296,43.669c-3.501,16.921-13.3,34.109-27.591,48.401
					c-14.292,14.291-31.481,24.09-48.401,27.592C131.358,262.774,126.978,263.237,122.793,263.237z M170.953,142.485
					c-3.354,0-6.902,0.379-10.604,1.145c-14.653,3.032-29.693,11.671-42.347,24.326c-12.655,12.654-21.294,27.693-24.326,42.347
					c-2.844,13.743-0.347,25.375,7.03,32.753c7.378,7.379,19.012,9.875,32.751,7.03c14.654-3.032,29.693-11.672,42.348-24.326
					c12.654-12.654,21.293-27.693,24.326-42.348c2.844-13.743,0.347-25.374-7.03-32.751c0-0.001,0-0.001,0-0.001
					C187.71,145.271,180.048,142.485,170.953,142.485z"/>
			</g>
			<g>
				
					<ellipse transform="matrix(0.7071 -0.7071 0.7071 0.7071 -95.3242 159.4856)" class="st7" cx="144.854" cy="194.809" rx="41.417" ry="27.215"/>
			</g>
			<g>
				<path class="st2" d="M130.973,235.914c-7.633,0-14.535-2.463-19.648-7.575c-2.343-2.344-2.343-6.143,0-8.485
					c2.343-2.344,6.142-2.343,8.485-0.001c8.131,8.132,26.47,3.531,40.045-10.042c7.004-7.004,11.777-15.285,13.439-23.317
					c1.474-7.122,0.268-13.062-3.397-16.727c-2.343-2.344-2.343-6.143,0-8.485c2.343-2.344,6.142-2.343,8.485-0.001
					c6.616,6.616,8.982,16.434,6.663,27.644c-2.131,10.3-8.064,20.731-16.705,29.372C156.839,229.798,143,235.914,130.973,235.914z"
					/>
			</g>
		</g>
		<g>
			<g>
				
					<ellipse transform="matrix(0.7071 -0.7071 0.7071 0.7071 -115.9046 350.4658)" class="st1" cx="365.097" cy="315.142" rx="71.333" ry="46.873"/>
			</g>
			<g>
				<path class="st7" d="M415.537,264.702c-3.364-3.364-7.378-5.841-11.855-7.483c9.969,19.839,0.951,51.184-23.208,75.343
					c-22.738,22.738-51.844,32.068-71.729,24.778c1.526,3.036,3.483,5.812,5.913,8.241c18.305,18.305,55.727,10.562,83.585-17.295
					C426.099,320.429,433.842,283.008,415.537,264.702z"/>
			</g>
			<g>
				<path class="st2" d="M340.988,381.521c-12.283,0.001-22.868-3.991-30.573-11.697c-10.329-10.328-13.986-25.837-10.296-43.668
					c3.501-16.921,13.3-34.11,27.592-48.401c14.291-14.291,31.479-24.09,48.4-27.592c17.825-3.689,33.339-0.033,43.669,10.297
					c10.329,10.329,13.985,25.838,10.296,43.669c-3.501,16.92-13.3,34.109-27.591,48.4c-14.292,14.292-31.481,24.091-48.401,27.592
					C349.554,381.059,345.172,381.521,340.988,381.521z M389.147,260.77c-3.354,0-6.902,0.379-10.604,1.145
					c-14.653,3.032-29.693,11.672-42.347,24.326c-12.655,12.654-21.294,27.693-24.326,42.348
					c-2.844,13.743-0.348,25.374,7.029,32.752c7.378,7.378,19.006,9.873,32.753,7.03c14.653-3.032,29.692-11.671,42.348-24.326
					c12.654-12.654,21.293-27.693,24.325-42.347c2.844-13.743,0.347-25.375-7.03-32.753h-0.001
					C405.905,263.555,398.243,260.77,389.147,260.77z"/>
			</g>
			<g>
				
					<ellipse transform="matrix(0.7071 -0.7071 0.7071 0.7071 -115.056 348.4171)" class="st7" cx="363.049" cy="313.093" rx="41.417" ry="27.215"/>
			</g>
			<g>
				<path class="st2" d="M349.168,354.198c-7.633,0-14.535-2.463-19.647-7.576c-2.344-2.343-2.344-6.142,0-8.484
					c2.342-2.344,6.143-2.344,8.484,0c8.132,8.13,26.47,3.532,40.046-10.043c13.574-13.575,18.173-31.913,10.042-40.045
					c-2.344-2.343-2.344-6.142,0-8.484c2.342-2.344,6.143-2.344,8.484,0c13.17,13.169,8.759,38.213-10.041,57.015
					C375.033,348.082,361.194,354.198,349.168,354.198z"/>
			</g>
		</g>
	</g>
</g>
</svg>
