<?xml version="1.0" encoding="utf-8"?>
<!-- Generator: Adobe Illustrator 22.1.0, SVG Export Plug-In . SVG Version: 6.00 Build 0)  -->
<svg version="1.1" id="Icon_Set" xmlns="http://www.w3.org/2000/svg" xmlns:xlink="http://www.w3.org/1999/xlink" x="0px" y="0px"
	 viewBox="0 0 512 512" style="enable-background:new 0 0 512 512;" xml:space="preserve">
<style type="text/css">
	.st0{fill:#F0C48A;}
	.st1{fill:#FD919E;}
	.st2{fill:#4C4372;}
	.st3{fill:#D3E6F8;}
	.st4{fill:#A4CFF2;}
	.st5{fill:#7BABF1;}
	.st6{fill:#FFFFFF;}
	.st7{fill:#E8677D;}
	.st8{fill:none;stroke:#4C4372;stroke-width:12;stroke-linecap:round;stroke-linejoin:round;stroke-miterlimit:10;}
</style>
<g id="Blood_Donation">
	<g>
		<g>
			<circle class="st0" cx="256" cy="256" r="207"/>
		</g>
	</g>
	<g>
		<g>
			<g>
				<path class="st1" d="M256,243.698L256,243.698c-36.921,0-59.996-39.968-41.536-71.942l0,0L256,99.815l41.536,71.942l0,0
					C315.996,203.731,292.921,243.698,256,243.698L256,243.698z"/>
			</g>
			<g>
				<path class="st2" d="M256,249.698c-19.508,0-36.979-10.086-46.732-26.98c-9.754-16.894-9.754-37.066,0-53.961l41.536-71.942
					c1.072-1.856,3.053-3,5.196-3s4.124,1.144,5.196,3l41.536,71.942c9.754,16.895,9.754,37.067-0.001,53.961
					C292.978,239.612,275.508,249.698,256,249.698z M256,111.814l-36.34,62.942c-7.585,13.138-7.585,28.824,0,41.961
					s21.17,20.98,36.34,20.98s28.755-7.843,36.34-20.98s7.585-28.824,0-41.961L256,111.814z"/>
			</g>
		</g>
		<g>
			<g>
				<g>
					<path class="st7" d="M347.504,214.591L347.504,214.591c-21.983,0-35.722-23.797-24.731-42.835l0,0l24.731-42.835l24.731,42.835
						l0,0C383.226,190.794,369.487,214.591,347.504,214.591L347.504,214.591z"/>
				</g>
				<g>
					<path class="st2" d="M347.504,220.591c-12.492,0-23.68-6.459-29.927-17.278c-6.246-10.819-6.246-23.737,0-34.557l24.73-42.835
						c1.072-1.856,3.053-3,5.196-3s4.124,1.144,5.196,3l24.73,42.834c6.246,10.819,6.246,23.738,0,34.557
						C371.184,214.132,359.996,220.591,347.504,220.591z M347.504,140.922l-19.534,33.834c-4.077,7.062-4.077,15.495,0,22.557
						c4.077,7.062,11.38,11.278,19.534,11.278s15.457-4.216,19.534-11.278s4.077-15.494,0-22.556L347.504,140.922z"/>
				</g>
			</g>
			<g>
				<g>
					<path class="st7" d="M164.496,214.591L164.496,214.591c-21.983,0-35.722-23.797-24.731-42.835l0,0l24.731-42.835l24.731,42.835
						l0,0C200.218,190.794,186.479,214.591,164.496,214.591L164.496,214.591z"/>
				</g>
				<g>
					<path class="st2" d="M164.496,220.591c-12.492,0-23.68-6.459-29.927-17.278c-6.246-10.819-6.246-23.737,0-34.557l24.73-42.835
						c1.072-1.856,3.053-3,5.196-3s4.124,1.144,5.196,3l24.73,42.834c6.246,10.819,6.246,23.738,0,34.557
						C188.176,214.132,176.988,220.591,164.496,220.591z M164.496,140.922l-19.534,33.834c-4.077,7.062-4.077,15.495,0,22.557
						c4.077,7.062,11.38,11.278,19.534,11.278s15.457-4.216,19.534-11.278s4.077-15.494,0-22.556L164.496,140.922z"/>
				</g>
			</g>
		</g>
		<g>
			<g>
				<path class="st3" d="M90.502,347.338l44.26-48.319c18.633-20.342,44.951-31.925,72.537-31.925h89.242
					c9.554,0,17.298,7.745,17.298,17.298v0c0,9.554-7.745,17.298-17.298,17.298h-31.046c-4.725,0-8.555,3.83-8.555,8.555v0
					c0,4.725,3.83,8.555,8.555,8.555h46.479c10.514,0,20.814-2.963,29.721-8.549l56.535-35.46
					c6.863-4.304,15.904-2.377,20.415,4.351l0.209,0.312c4.682,6.984,2.983,16.342-3.796,21.192l-66.881,47.847
					c-11.349,8.119-24.953,12.484-38.908,12.484h-87.014c-9.222,0-18.096,3.523-24.806,9.849l-43.876,41.36L90.502,347.338z"/>
			</g>
			<g>
				<path class="st2" d="M153.574,418.186c-1.564,0-3.127-0.608-4.302-1.817l-63.071-64.848c-2.217-2.279-2.271-5.892-0.124-8.236
					l44.26-48.319c19.719-21.526,47.77-33.873,76.962-33.873h89.241c12.847,0,23.299,10.452,23.299,23.298
					s-10.452,23.298-23.299,23.298h-31.046c-1.408,0-2.555,1.146-2.555,2.555s1.146,2.555,2.555,2.555h46.479
					c9.396,0,18.572-2.639,26.534-7.632l56.534-35.46c9.672-6.066,22.229-3.389,28.587,6.093l0.213,0.319
					c6.509,9.707,4.186,22.626-5.292,29.407l-66.881,47.847c-12.44,8.9-27.102,13.604-42.398,13.604h-87.015
					c-7.722,0-15.07,2.917-20.69,8.215l-43.876,41.36C156.531,417.643,155.051,418.186,153.574,418.186z M98.752,347.214
					l55.004,56.554l39.578-37.309c7.855-7.405,18.127-11.483,28.921-11.483h87.015c12.777,0,25.024-3.93,35.416-11.364
					l66.881-47.847c4.169-2.982,5.181-8.679,2.304-12.97l-0.213-0.318c-2.72-4.056-8.099-5.202-12.239-2.604l-56.535,35.46
					c-9.876,6.193-21.256,9.466-32.91,9.466h-46.479c-8.025,0-14.555-6.529-14.555-14.555s6.529-14.555,14.555-14.555h31.046
					c6.23,0,11.299-5.068,11.299-11.298s-5.068-11.298-11.299-11.298h-89.241c-25.836,0-50.662,10.927-68.112,29.978L98.752,347.214
					z"/>
			</g>
		</g>
	</g>
</g>
</svg>
