<?xml version="1.0" encoding="utf-8"?>
<!-- Generator: Adobe Illustrator 27.5.0, SVG Export Plug-In . SVG Version: 6.00 Build 0)  -->
<svg version="1.1" id="Capa_1" xmlns="http://www.w3.org/2000/svg" xmlns:xlink="http://www.w3.org/1999/xlink" x="0px" y="0px"
	 viewBox="0 0 1893 2379" style="enable-background:new 0 0 1893 2379;" xml:space="preserve">
<path style="fill:#C5DCEA;" d="M1335.172,186.503c-35.69-42.828-717.371-42.828-767.337,0c-49.966,42.828-35.886,635.284,0,678.112
	c14.384,17.167,133.664,29.165,274.168,33.942c60.487,2.056,124.878,2.773,186.569,1.985c152.514-1.949,288.329-13.089,306.6-35.927
	C1378,811.08,1370.862,229.331,1335.172,186.503z"/>
<path style="fill:#C5DCEA;" d="M559.907,1256.468c-3.767,11.009-9.399,25.373-16.282,42.006
	c-10.198,24.627-23.024,53.937-36.091,83.392c-26.055,58.726-53.095,118.1-62.022,141.674c11.729,9.739,21.969,21.125,32.017,32.332
	c0.906,1.011,0.82,2.565-0.191,3.471c-1.011,0.906-2.565,0.82-3.47-0.191c-13.061-14.581-26.187-29.149-42.101-39.83
	c-13.341-8.965-29.102-15.065-44.747-15.056c-2.986,0-5.97,0.22-8.937,0.683l0.001,0.001c-1.342,0.209-2.599-0.709-2.808-2.05
	c-0.209-1.341,0.708-2.598,2.05-2.807c3.228-0.503,6.466-0.742,9.694-0.742c16.933,0.009,33.529,6.523,47.487,15.891
	c2.397,1.611,4.71,3.319,6.98,5.074c7.133-18.482,23.574-55.301,42.078-96.737c19.063-42.682,40.265-90.148,55.519-126.985
	c8.581-20.708,15.246-38.051,18.587-49.162c-11.833-47.771-26.559-106.963-29.252-144.156
	c-107.939,72.506-209.631,376.093-201.411,414.873c2.231,10.523,12.594,21.654,27.025,31.968
	c5.654-6.03,10.198-10.664,12.824-13.067c15.502-14.185,65.678,9.887,69.956,23.328c1.201,3.773,3.542,14.396,5.909,27.933
	c18.793,3.844,34.451,3.755,41.548-2.27c18.963-16.098,67.623-197.264,84.773-291.103
	C566.693,1284.161,563.492,1270.987,559.907,1256.468z"/>
<path style="fill:#27224F;" d="M1147.843,2154.38c0.017-0.136,0.068-0.261,0.062-0.403c-0.141-2.951-0.211-5.923-0.211-8.903
	c-0.006-19,2.891-38.238,8.635-53.828c0.201,0.007,0.404,0.029,0.605,0.029c6.433-0.004,12.319-3.397,16.688-8.654
	c4.383-5.273,7.369-12.475,8.145-20.59v-0.002c0.128-1.359,0.191-2.704,0.191-4.031c-0.004-7.613-2.062-14.607-5.671-19.953
	c-1.366-2.029-3.042-3.725-4.855-5.206c0.13-0.217,0.257-0.44,0.316-0.7l0,0c2.294-10.032,3.264-21.407,3.265-33.977
	c-0.038-67.49-27.926-170.058-35.663-280.886c-0.095-1.354-1.269-2.374-2.623-2.279c-1.354,0.095-2.374,1.269-2.279,2.623
	c7.808,111.345,35.687,214.258,35.649,280.543c0.001,11.937-0.925,22.635-2.967,31.967c-1.869-0.867-3.824-1.543-5.942-1.744
	c-0.577-0.056-1.153-0.082-1.723-0.082c-6.434,0.005-12.319,3.397-16.687,8.655c-4.383,5.272-7.368,12.474-8.144,20.591
	c-0.132,1.359-0.193,2.707-0.193,4.032c0.005,7.613,2.062,14.607,5.672,19.954c2.836,4.21,6.749,7.354,11.325,8.812
	c-5.809,16.164-8.654,35.552-8.658,54.731c0,2.358,0.081,4.706,0.167,7.051c-15.014-7.076-25.456-13.803-28.59-19.226
	c-1.737-3.005-2.84-6.423-3.621-10.047c-0.036-0.018-0.079-0.036-0.115-0.054c-1.115,15.231-8.933,40.239,1.381,55.644
	c16.726,24.982,186.626,66.015,243.045,33.317c10.762-6.188,21.886-20.306,23.081-27.569
	C1366.865,2220.965,1216.961,2185.312,1147.843,2154.38z M1144.182,2078.778c-2.981-4.399-4.832-10.479-4.828-17.2
	c0-1.174,0.055-2.363,0.171-3.562c0.681-7.198,3.352-13.506,7.029-17.916c3.693-4.425,8.272-6.889,12.91-6.884l1.254,0.06
	c4.503,0.431,8.499,3.109,11.498,7.522c2.981,4.398,4.832,10.478,4.828,17.199c0,1.171-0.056,2.362-0.17,3.568l0,0
	c-0.68,7.193-3.352,13.501-7.029,17.91c-3.693,4.425-8.272,6.888-12.91,6.884l-1.036-0.049c-0.097-0.054-0.17-0.136-0.277-0.178
	c-0.398-0.156-0.803-0.166-1.2-0.115C1150.445,2085.243,1146.894,2082.768,1144.182,2078.778z"/>
<path style="fill:#27224F;" d="M1128.301,1704.467c23.809,18.719,56.369,6.178,73.652-1.351
	c-3.223-33.584-6.71-67.139-10.366-100.653c-1.064-9.763-2.214-19.516-3.311-29.275c-21.543,6.088-45.845,11.122-71.988,15.081
	C1120.587,1626.97,1124.639,1665.701,1128.301,1704.467z"/>
<path style="fill:#C5DCEA;" d="M1172.215,2040.797c-2.999-4.413-6.995-7.091-11.498-7.522l-1.254-0.06
	c-4.638-0.005-9.217,2.458-12.91,6.884c-3.676,4.41-6.348,10.718-7.029,17.916c-0.116,1.199-0.171,2.388-0.171,3.562
	c-0.004,6.721,1.847,12.802,4.828,17.2c2.712,3.99,6.263,6.465,10.239,7.239c0.397-0.051,0.802-0.041,1.2,0.115
	c0.107,0.042,0.18,0.124,0.277,0.178l1.036,0.049c4.638,0.005,9.217-2.459,12.91-6.884c3.677-4.41,6.349-10.717,7.029-17.91
	c0.114-1.206,0.17-2.397,0.17-3.568C1177.047,2051.275,1175.196,2045.195,1172.215,2040.797z"/>
<path style="fill:#C5DCEA;" d="M1269.424,1983.645c-33.629-102.07-24.649-299.211-67.252-280.623c-0.07,0.03-0.15,0.064-0.22,0.094
	c-17.283,7.529-49.843,20.069-73.652,1.351c-0.496-0.389-1.01-0.709-1.498-1.126c-31.57-26.997,19.317,242.348,10.095,297.485
	c-6.078,36.347-33.054,90.075-26.165,122.026c0.781,3.625,1.884,7.043,3.621,10.047c3.134,5.423,13.577,12.15,28.59,19.226
	c-0.086-2.345-0.167-4.693-0.167-7.051c0.004-19.178,2.849-38.567,8.658-54.731c-4.576-1.458-8.489-4.602-11.325-8.812
	c-3.61-5.347-5.668-12.341-5.672-19.954c0-1.326,0.061-2.674,0.193-4.032c0.776-8.116,3.76-15.318,8.144-20.591
	c4.368-5.258,10.253-8.65,16.687-8.655c0.571,0,1.146,0.026,1.723,0.082c2.118,0.201,4.073,0.877,5.942,1.744
	c2.042-9.331,2.967-20.029,2.967-31.967c0.037-66.284-27.841-169.198-35.649-280.543c-0.095-1.354,0.925-2.528,2.279-2.623
	c1.354-0.095,2.528,0.925,2.623,2.279c7.737,110.828,35.625,213.396,35.663,280.886c-0.001,12.57-0.971,23.945-3.265,33.977l0,0
	c-0.059,0.26-0.186,0.483-0.316,0.7c1.813,1.482,3.49,3.178,4.855,5.206c3.609,5.346,5.667,12.34,5.671,19.953
	c0,1.327-0.063,2.672-0.191,4.031v0.002c-0.027,0.278-0.056,0.556-0.088,0.832c-0.896,7.775-3.824,14.667-8.057,19.758
	c-4.368,5.257-10.254,8.65-16.688,8.654c-0.201,0-0.404-0.022-0.605-0.029c-5.744,15.59-8.641,34.828-8.635,53.828
	c0,2.98,0.069,5.952,0.211,8.903c0.007,0.142-0.044,0.267-0.062,0.403c69.118,30.932,219.022,66.585,230.283,29.81
	c0.522-1.707,0.86-3.434,1.104-5.171C1385.599,2133.788,1300.487,2077.923,1269.424,1983.645z"/>
<path style="fill:#DCEBF5;" d="M1344.766,2140.226c-4.963-9.886-13.35-17.53-21.271-25.251c-0.074-0.071-0.144-0.146-0.217-0.217
	c-4.4,3.945-11.33,5.349-16.993,0.344c-20.704-18.298-36.142-42.106-47.904-66.924c-23.437-49.452-35.305-103.736-43.808-157.511
	c-4.137-26.161-7.408-52.453-10.387-78.768c-1.262-11.151-2.469-22.309-3.725-33.461c-0.579-5.15-1.168-10.3-1.79-15.445
	c-0.241-1.989-0.485-3.977-0.737-5.964c-0.144-1.146-0.293-2.292-0.443-3.437c-0.032-0.255-0.047-0.363-0.068-0.531
	c-0.025-0.176-0.044-0.316-0.084-0.613c-0.904-6.602,1.488-13.166,8.582-15.116c1.865-0.512,3.999-0.436,6.072,0.054
	c-0.896-4.585-1.827-9.095-2.804-13.509c-1.776-8.026-55.478-7.27-54.474,20.495c1.609,44.509,32.734,151.857,42.104,195.398
	c5.211,24.216,10.342,48.659,10.446,73.429c0.159,37.727-10.895,77.971,6.131,111.638c9.613,19.008,27.211,33.02,46.409,42.248
	c15.717,7.554,32.788,12.279,50.152,13.878c12.053,1.11,25.88-0.025,33.543-9.393
	C1350.502,2163.007,1349.729,2150.112,1344.766,2140.226z"/>
<path style="fill:#FFFFFF;" d="M1205.921,1737.332c-7.095,1.95-9.487,8.514-8.582,15.116c0.041,0.297,0.06,0.437,0.084,0.613
	c0.021,0.168,0.036,0.276,0.068,0.531c0.15,1.145,0.298,2.291,0.443,3.437c0.252,1.987,0.497,3.975,0.737,5.964
	c0.622,5.145,1.21,10.295,1.79,15.445c1.256,11.152,2.463,22.31,3.725,33.461c2.979,26.314,6.251,52.607,10.387,78.768
	c8.504,53.775,20.371,108.06,43.808,157.511c11.762,24.818,27.2,48.626,47.904,66.924c5.663,5.005,12.593,3.601,16.993-0.344
	c4.778-4.284,6.57-11.568,0.385-17.035c-36.335-32.112-54.555-80.684-67.156-126.456c-13.919-50.556-21.254-102.679-27.212-154.687
	c-2.699-23.561-5.04-47.168-8.259-70.666c-0.611-4.461-4.684-7.497-9.045-8.529
	C1209.919,1736.896,1207.786,1736.82,1205.921,1737.332z"/>
<path style="fill:#27224F;" d="M809.346,2152.125c0.084-2.343,0.164-4.689,0.164-7.048c-0.006-19.947-3.056-40.147-9.349-56.682
	c2.751-1.7,5.16-4.031,7.069-6.865c3.609-5.347,5.667-12.341,5.671-19.954c0-1.328-0.063-2.673-0.191-4.031
	c-0.776-8.118-3.761-15.32-8.145-20.593c-4.368-5.258-10.254-8.65-16.688-8.655c-0.57,0-1.148,0.026-1.728,0.083
	c-0.44,0.041-0.836,0.213-1.266,0.285c-1.83-8.993-2.693-19.176-2.692-30.508c-0.037-66.284,27.838-169.198,35.651-280.543
	c0.094-1.354-0.927-2.528-2.28-2.623c-1.354-0.095-2.529,0.926-2.623,2.28c-7.741,110.828-35.627,213.395-35.664,280.885
	c0.001,11.766,0.898,22.438,2.889,31.989c-3.607,1.686-6.75,4.39-9.111,7.895c-3.61,5.346-5.668,12.34-5.672,19.953
	c0,1.324,0.061,2.67,0.193,4.033l0,0c0,0.001,0.001,0.002,0.001,0.004l0,0l0,0c0.777,8.115,3.76,15.314,8.143,20.586
	c4.368,5.257,10.253,8.65,16.687,8.654c0.572,0,1.145-0.027,1.719-0.081c1.228-0.116,2.385-0.447,3.533-0.795
	c5.951,15.736,8.94,35.338,8.935,54.68c0,2.977-0.071,5.95-0.208,8.901c-0.007,0.141,0.045,0.265,0.062,0.4
	c-69.118,30.932-219.023,66.585-230.284,29.81c0.509,4.909,5.89,15.625,23.081,27.569c53.553,37.206,226.32-8.335,243.046-33.317
	c10.313-15.406,2.496-40.414,1.381-55.644c-0.036,0.018-0.078,0.036-0.115,0.054c-0.781,3.625-1.884,7.043-3.621,10.048
	C834.802,2138.323,824.361,2145.049,809.346,2152.125z M791.665,2086.3l-1.258,0.059c-4.638,0.005-9.217-2.458-12.91-6.884
	c-3.676-4.41-6.348-10.717-7.028-17.91l-0.001-0.004c-0.116-1.201-0.171-2.39-0.171-3.563c-0.004-6.721,1.847-12.802,4.828-17.199
	c2.276-3.349,5.13-5.685,8.339-6.812c0.008-0.002,0.014,0.001,0.022-0.001c0.008-0.002,0.012-0.007,0.02-0.009
	c1.006-0.35,2.043-0.598,3.113-0.701l1.257-0.06c4.639-0.005,9.218,2.458,12.911,6.884c3.677,4.41,6.349,10.718,7.029,17.911
	c0.113,1.203,0.169,2.395,0.169,3.567c0.004,6.721-1.846,12.802-4.827,17.2C800.16,2083.191,796.164,2085.869,791.665,2086.3z"/>
<path style="fill:#27224F;" d="M750.387,1703.137c17.282,7.525,49.764,20.01,73.547,1.373c3.26-34.049,6.794-68.068,10.5-102.046
	c0.361-3.307,0.757-6.609,1.121-9.915c-25.578-2.88-49.984-6.697-72.483-11.457C758.527,1621.738,754.242,1662.418,750.387,1703.137
	z"/>
<path style="fill:#C5DCEA;" d="M807.817,2058.011c-0.68-7.194-3.352-13.502-7.029-17.911c-3.693-4.425-8.272-6.889-12.911-6.884
	l-1.257,0.06c-1.071,0.103-2.107,0.351-3.113,0.701c-0.008,0.002-0.012,0.007-0.02,0.009c-0.007,0.002-0.014-0.001-0.022,0.001
	c-3.209,1.126-6.063,3.462-8.339,6.812c-2.981,4.398-4.832,10.478-4.828,17.199c0,1.174,0.055,2.362,0.171,3.563l0.001,0.004
	c0.031,0.326,0.066,0.651,0.105,0.973c0.819,6.788,3.413,12.728,6.923,16.937c3.693,4.426,8.272,6.888,12.91,6.884l1.258-0.059
	c4.499-0.431,8.495-3.109,11.494-7.522c2.981-4.399,4.831-10.479,4.827-17.2C807.986,2060.406,807.93,2059.214,807.817,2058.011z"/>
<path style="fill:#C5DCEA;" d="M815.392,2000.826c-9.22-55.137,41.667-324.482,10.097-297.485c-0.507,0.433-1.04,0.765-1.555,1.169
	c-23.783,18.637-56.265,6.153-73.547-1.373c-0.086-0.037-0.184-0.078-0.268-0.115c-42.603-18.588-33.622,178.553-67.252,280.623
	c-31.063,94.278-116.175,150.143-109.806,195.374c0.245,1.737,0.582,3.464,1.104,5.171c11.262,36.775,161.166,1.122,230.284-29.81
	c-0.017-0.135-0.068-0.26-0.062-0.4c0.137-2.952,0.208-5.924,0.208-8.901c0.006-19.342-2.984-38.944-8.935-54.68
	c-1.148,0.348-2.306,0.679-3.533,0.795c-0.575,0.054-1.147,0.081-1.719,0.081c-6.435-0.004-12.319-3.397-16.687-8.654
	c-4.383-5.272-7.366-12.471-8.143-20.586l0,0c0-0.002-0.001-0.003-0.001-0.004c-0.133-1.364-0.193-2.709-0.193-4.033
	c0.004-7.613,2.062-14.607,5.672-19.953c2.361-3.505,5.504-6.208,9.111-7.895c-1.991-9.551-2.888-20.223-2.889-31.989
	c0.038-67.49,27.923-170.058,35.664-280.885c0.094-1.354,1.269-2.375,2.623-2.28c1.353,0.095,2.374,1.269,2.28,2.623
	c-7.813,111.345-35.689,214.258-35.651,280.543c-0.001,11.332,0.861,21.515,2.692,30.508c0.43-0.073,0.826-0.244,1.266-0.285
	c0.58-0.057,1.157-0.083,1.728-0.083c6.434,0.005,12.32,3.397,16.688,8.655c4.383,5.272,7.368,12.474,8.145,20.593
	c0.129,1.357,0.191,2.703,0.191,4.031c-0.004,7.613-2.062,14.607-5.671,19.954c-1.909,2.833-4.318,5.164-7.069,6.865
	c6.292,16.535,9.343,36.735,9.349,56.682c0,2.358-0.081,4.705-0.164,7.048c15.015-7.077,25.456-13.803,28.591-19.227
	c1.736-3.005,2.839-6.423,3.621-10.048C848.447,2090.9,821.471,2037.173,815.392,2000.826z"/>
<path style="fill:#27224F;" d="M791.909,2037.612c-0.977-0.943-2.532-0.915-3.474,0.062c-0.943,0.977-0.915,2.532,0.062,3.475
	l0-0.001c4.873,4.691,7.62,11.599,7.614,18.436c0,2.83-0.466,5.641-1.42,8.28c-0.648,1.799-1.61,3.565-2.779,4.899
	c-1.178,1.344-2.503,2.232-3.991,2.571c-1.324,0.301-2.153,1.618-1.852,2.941c0.3,1.323,1.617,2.152,2.941,1.852
	c2.727-0.62,4.934-2.214,6.604-4.13c1.677-1.926,2.876-4.196,3.699-6.46c1.159-3.208,1.713-6.583,1.713-9.952
	C801.017,2051.46,797.828,2043.34,791.909,2037.612z"/>
<path style="fill:#27224F;" d="M1158.335,2080.127c1.323,0.301,2.64-0.528,2.94-1.852c0.301-1.323-0.528-2.64-1.851-2.941
	c-1.49-0.339-2.814-1.228-3.993-2.571c-1.168-1.333-2.13-3.1-2.779-4.9c-0.956-2.638-1.422-5.448-1.422-8.278
	c-0.007-6.837,2.741-13.745,7.616-18.436c0.977-0.942,1.004-2.498,0.062-3.474c-0.943-0.977-2.497-1.004-3.474-0.062l-0.001-0.001
	c-5.92,5.727-9.11,13.847-9.118,21.973c0,3.367,0.552,6.744,1.716,9.952c0.822,2.264,2.022,4.534,3.699,6.46
	C1153.4,2077.914,1155.607,2079.508,1158.335,2080.127z"/>
<path style="fill:#DCEBF5;" d="M743.103,1723.878c-0.977,4.415-1.909,8.926-2.805,13.513c2.08-0.492,4.216-0.569,6.072-0.059
	c6.996,1.922,9.482,8.549,8.583,15.116c-0.03,0.214-0.045,0.331-0.065,0.481c-0.079,0.599-0.158,1.197-0.236,1.795
	c-0.147,1.157-0.297,2.315-0.441,3.472c-0.303,2.42-0.597,4.84-0.885,7.261c-0.676,5.688-1.319,11.381-1.954,17.074
	c-1.443,12.932-2.846,25.869-4.347,38.794c-6.244,53.769-13.782,107.761-28.513,159.956c-13.656,48.387-33.937,99.733-72.507,133.82
	c-5.665,5.007-12.593,3.602-16.992-0.344c-0.074,0.072-0.145,0.146-0.218,0.217c-7.921,7.721-16.307,15.365-21.27,25.251
	c-4.963,9.885-5.736,22.781,1.267,31.344c7.663,9.369,21.491,10.504,33.543,9.393c17.365-1.599,34.435-6.323,50.152-13.878
	c19.199-9.228,36.796-23.239,46.409-42.248c17.027-33.667,5.973-73.91,6.131-111.638c0.105-24.77,5.235-49.213,10.446-73.429
	c9.37-43.541,40.495-150.889,42.104-195.398C798.581,1716.608,744.879,1715.852,743.103,1723.878z"/>
<path style="fill:#FFFFFF;" d="M646.005,2115.102c38.57-34.088,58.851-85.433,72.507-133.82
	c14.73-52.195,22.268-106.186,28.513-159.956c1.501-12.926,2.904-25.862,4.347-38.794c0.635-5.693,1.278-11.386,1.954-17.074
	c0.288-2.421,0.582-4.841,0.885-7.261c0.144-1.158,0.294-2.315,0.441-3.472c0.078-0.599,0.157-1.197,0.236-1.795
	c0.02-0.151,0.036-0.267,0.065-0.481c0.899-6.567-1.587-13.193-8.583-15.116c-1.855-0.51-3.992-0.433-6.072,0.059
	c-4.349,1.03-8.431,4.047-9.045,8.524c-6.141,44.83-9.746,89.954-16.682,134.687c-8.072,52.077-18.732,105.624-41.169,153.653
	c-11.116,23.792-25.034,46.021-44.775,63.469c-6.182,5.464-4.393,12.75,0.386,17.035
	C633.412,2118.704,640.34,2120.109,646.005,2115.102z"/>
<path style="fill:#27224F;" d="M529.38,1077.605c-1.535,6.239-1.727,15.079-0.96,25.671c2.692,37.192,17.418,96.385,29.252,144.156
	c-3.341,11.111-10.007,28.454-18.587,49.162c-15.254,36.837-36.456,84.303-55.519,126.985
	c-18.504,41.437-34.945,78.255-42.078,96.737c-2.271-1.756-4.583-3.463-6.98-5.074c-13.958-9.368-30.554-15.882-47.487-15.891
	c-3.228,0-6.466,0.239-9.694,0.742c-1.342,0.209-2.259,1.466-2.05,2.807c0.209,1.341,1.466,2.259,2.808,2.05l-0.001-0.001
	c2.967-0.463,5.951-0.683,8.937-0.683c15.646-0.009,31.406,6.091,44.747,15.056c15.914,10.682,29.041,25.249,42.101,39.83
	c0.905,1.011,2.459,1.096,3.47,0.191c1.011-0.906,1.096-2.46,0.191-3.471c-10.048-11.207-20.288-22.593-32.017-32.332
	c8.927-23.574,35.967-82.948,62.022-141.674c13.067-29.454,25.893-58.765,36.091-83.392c6.883-16.633,12.515-30.997,16.282-42.006
	c3.585,14.519,6.786,27.693,9.137,38.47c1.733,7.946,3.012,14.611,3.635,19.537c2.499,19.759,13.734,28.412,26.024,29.815
	c-9.474-91.318-14.223-204.471-15.015-314.135C558.762,1040.242,534.341,1057.453,529.38,1077.605z"/>
<path style="fill:#C5DCEA;" d="M1273.877,1009.164c8.165-0.272,15.381,4.488,18.661,11.47c6.811,0.047,15.002,1.341,23.717,3.704
	c0.096-8.736,0.187-17.454,0.272-26.124c0.38-38.849-134.844-68.088-289.214-77.86c-0.847,10.231-1.877,17.62-3.084,20.66
	c-22.294,56.138-147.47,59.706-177.283,0c-1.298-2.599-2.499-10.823-3.533-22.546c-141.61,6.626-259.967,33.675-259.837,89.281
	c0.018,7.446,0.057,14.92,0.111,22.407c0.792,109.664,5.541,222.817,15.015,314.135c8.748,84.311,21.52,150.012,38.943,177.042
	c17.383,26.968,64.332,46.831,125.427,59.758c22.499,4.76,46.905,8.577,72.483,11.457c90.423,10.183,195.26,8.667,280.733-4.278
	c26.143-3.959,50.445-8.994,71.988-15.081c44.946-12.701,77.818-30,89.727-51.856c14.886-27.32,23.838-97.425,29.37-187.125
	c-1.091,0.149-2.144,0.255-3.182,0.343c-1.599,9.044-9.377,16.107-18.902,16.425c-10.925,0.365-20.162-8.275-20.527-19.201
	l-10.086-302.085C1254.312,1018.765,1262.952,1009.528,1273.877,1009.164z"/>
<path style="fill:#DCEBF5;" d="M1154.068,1136.012c-8.06-7.92-35.035-9.473-72.361-8.911c0.001,0.044,0.023,0.082,0.021,0.126
	c-0.048,1.356-1.185,2.418-2.542,2.371c-14.906-0.517-30.105-0.863-45.565-1.121c-66.829-1.114-139.137-0.442-219.203-3.174
	c-35.992-1.228-73.504-3.128-112.852-6.22l0,0c-1.353-0.107-2.364-1.29-2.258-2.643c0.107-1.353,1.29-2.364,2.643-2.257
	c7.97,0.626,15.836,1.185,23.662,1.719c-48.529-4.92-85.516-6.61-101.256,4.723c-20.217,14.557-19.822,94.451-16.701,150.025
	c7.072,125.944,30.615,225.962,66.556,257.735c53.708,47.479,427.844,65.876,472.136,19.555
	C1190.643,1501.62,1192.96,1174.226,1154.068,1136.012z"/>
<path style="fill:#659FBA;" d="M1273.877,1009.164c-10.925,0.364-19.566,9.602-19.201,20.527l10.086,302.085
	c0.365,10.926,9.602,19.566,20.527,19.201c9.524-0.318,17.302-7.381,18.902-16.425c-9.059,0.779-16.019-0.73-18.906-5.215
	c-12.706-19.743-19.949-281.925-10.267-302.149c2.198-4.589,8.699-6.614,17.521-6.553
	C1289.258,1013.652,1282.043,1008.891,1273.877,1009.164z"/>
<path style="fill:#27224F;" d="M1354.723,1077.975c12.749,6.988,25.451,17.409,37.938,30.386
	c-1.333-12.177-2.97-22.775-4.935-30.755c-6.11-24.822-41.733-45.202-71.47-53.267c-8.715-2.364-16.906-3.657-23.717-3.704
	c-8.821-0.061-15.323,1.964-17.521,6.553c-9.681,20.224-2.439,282.406,10.267,302.149c2.886,4.485,9.847,5.994,18.906,5.215
	c1.038-0.089,2.091-0.195,3.182-0.343c8.66-1.183,18.884-4.227,29.235-8.637c-11.221-50.72-19.046-92.329-19.138-103.341
	C1317.101,1177.69,1329.454,1064.124,1354.723,1077.975z"/>
<path style="fill:#27224F;" d="M1281.073,1361.769l-0.001,0c-1.615,0.492-3.263,0.723-4.924,0.723
	c-7.431,0.044-15.309-4.816-19.858-11.4c-5.682-8.136-7.663-18.618-8.949-29.105c-4.267-34.414-6.187-117.403-6.182-185.737
	c-0.003-44.953,0.832-83.742,2.322-98.052c0.14-1.35-0.841-2.558-2.191-2.698c-1.35-0.14-2.558,0.841-2.698,2.191
	c-1.534,14.827-2.345,53.49-2.349,98.559c0.005,68.481,1.895,151.343,6.219,186.341c1.331,10.653,3.307,21.96,9.793,31.308
	c5.394,7.709,14.37,13.465,23.893,13.509c2.118,0,4.257-0.296,6.357-0.936c1.298-0.396,2.03-1.769,1.634-3.068
	C1283.744,1362.105,1282.371,1361.373,1281.073,1361.769z"/>
<path style="fill:#27224F;" d="M699.308,1116.441c-0.106,1.353,0.905,2.536,2.258,2.643l0,0c39.347,3.093,76.86,4.992,112.852,6.22
	c80.066,2.732,152.374,2.061,219.203,3.174c15.461,0.258,30.659,0.604,45.565,1.121c1.356,0.047,2.493-1.015,2.542-2.371
	c0.002-0.044-0.02-0.082-0.021-0.126c-0.024-1.297-1.037-2.369-2.349-2.415c-102.677-3.556-217.419,0.522-353.743-8.784
	c-7.826-0.534-15.692-1.092-23.662-1.719C700.598,1114.076,699.415,1115.088,699.308,1116.441z"/>
<path style="fill:#FFFFFF;" d="M834.291,1092.883c68.202,1.469,136.381,4.442,204.467,8.664c33.633,2.086,67.25,4.491,100.819,7.444
	c6.62,0.582,12.288-6.065,12.288-12.289c0-7.132-5.649-11.705-12.288-12.289c-129.497-11.388-259.987-17.381-389.988-16.963
	c-31.751,0.102-63.523,0.679-95.223,2.571c-15.717,0.938-15.825,25.521,0,24.577
	C714.229,1091.025,774.365,1091.592,834.291,1092.883z"/>
<path style="fill:#FFFFFF;" d="M651.047,1154.335c0.287-15.821-24.29-15.823-24.577,0c-1.964,108.373-3.414,219.78,32.496,323.548
	c5.141,14.856,28.891,8.47,23.7-6.533C647.431,1369.536,649.122,1260.659,651.047,1154.335z"/>
<path style="fill:#27224F;" d="M1024.229,941.014c1.207-3.04,2.237-10.429,3.084-20.66c0.479-5.777,0.9-12.449,1.259-19.812
	c-61.691,0.789-126.081,0.072-186.569-1.985c0.422,7.358,0.894,14.072,1.41,19.911c1.034,11.723,2.235,19.947,3.533,22.546
	C876.76,1000.72,1001.935,997.151,1024.229,941.014z"/>
<path style="fill:#27224F;" d="M1201.394,306.072c-28.552-32.949-573.895-32.949-613.867,0c-39.973,32.95-28.709,488.748,0,521.696
	c28.709,32.949,579.605,41.187,613.867,0C1235.656,786.582,1229.946,339.022,1201.394,306.072z"/>
<path style="fill:#252F6C;" d="M973.711,521.947c-21.672,1.726-43.385,2.98-65.113,3.82c-0.23,22.6-0.662,45.197-1.44,67.785
	c23.195-0.335,46.334-0.832,69.42-1.449C975.559,569.258,974.61,545.693,973.711,521.947z"/>
<path style="fill:#252F6C;" d="M977.059,602.726c-23.436,1.922-46.92,3.323-70.421,4.206c-0.665,16.955-1.487,33.904-2.458,50.845
	c25.26-0.354,50.453-0.899,75.583-1.586C978.807,639.094,977.91,621.181,977.059,602.726z"/>
<path style="fill:#252F6C;" d="M1053.792,594.11c-21.925,3.163-43.937,5.687-66.007,7.67c-0.357,18.086-1.061,36.161-2.13,54.224
	c23.331-0.665,46.556-1.523,69.695-2.539C1054.766,633.77,1054.256,613.976,1053.792,594.11z"/>
<path style="fill:#252F6C;" d="M987.561,520.726c0.523,23.672,0.691,47.349,0.373,71.016c22.004-0.638,43.916-1.44,65.749-2.391
	c-0.585-25.295-1.137-50.667-1.747-76.057C1030.55,516.344,1009.085,518.796,987.561,520.726z"/>
<path style="fill:#252F6C;" d="M719.052,658.218c-2.107-17.768-3.732-35.587-5.025-53.434c-22.691-1.322-45.349-3.114-67.963-5.384
	c0.733,19.48,1.536,38.896,2.335,58.223C671.872,657.858,695.426,658.064,719.052,658.218z"/>
<path style="fill:#252F6C;" d="M984.775,455.506c0.893,14.608,1.639,29.222,2.244,43.828c0.113,3.784,0.191,7.569,0.288,11.354
	c21.589-0.622,43.091-1.402,64.515-2.325c-0.503-20.629-1.103-41.234-1.772-61.806
	C1028.38,450.179,1006.617,453.171,984.775,455.506z"/>
<path style="fill:#252F6C;" d="M896.577,607.229c-17.824,0.573-35.65,0.951-53.46,1.077c-8.119-0.006-16.24-0.077-24.36-0.153
	c-0.612,16.76-1.374,33.515-2.284,50.262c27.529-0.06,55.057-0.225,82.551-0.588C898.057,640.968,897.24,624.102,896.577,607.229z"
	/>
<path style="fill:#252F6C;" d="M810.282,658.426c-0.913-16.788-1.677-33.583-2.29-50.384c-27.578-0.374-55.151-1.232-82.691-2.667
	c0.208,17.681,0.403,35.318,0.555,52.872C753.943,658.417,782.101,658.469,810.282,658.426z"/>
<path style="fill:#252F6C;" d="M1114.594,699.929c28.34-29.691,23.617-352.334,0-376.087c-8.335-8.383-69.932-13.803-147.583-16.269
	c4.019,20.383,7.262,40.889,9.876,61.481c23.385-0.695,46.662-1.576,69.849-2.605c-0.762-14.456-1.603-28.864-2.584-43.18
	c3.551,14.189,6.488,28.502,8.996,42.89c8.862-0.407,17.771-0.744,26.596-1.205c-8.643,1.639-17.311,3.118-25.989,4.529
	c4.127,24.4,6.885,49.034,8.808,73.735c2.986-0.149,6.005-0.252,8.987-0.407c-2.962,0.562-5.939,1.017-8.905,1.552
	c1.619,21.102,2.655,42.249,3.31,63.351c9.706-0.451,19.461-0.821,29.121-1.342c-9.666,1.781-19.361,3.392-29.069,4.902
	c0.393,25.848,0.259,51.71-0.625,77.54c9.897-0.459,19.844-0.836,29.694-1.369c-9.917,1.827-19.861,3.487-29.822,5.03
	c-0.753,20.27-1.998,40.515-3.88,60.714c11.239-0.51,22.522-0.949,33.702-1.554c-11.339,2.089-22.716,3.949-34.113,5.668
	c-1.198,12.286-2.566,24.559-4.273,36.802c-0.45-11.952-0.821-23.994-1.188-36.041c-23.41,3.413-46.921,6.084-70.496,8.154
	c-0.733,10.845-1.56,21.686-2.609,32.518c-0.708-10.253-1.385-20.992-2.037-32.109c-25.628,2.163-51.317,3.678-77.025,4.598
	c-0.569,9.17-1.073,18.346-1.733,27.511c-0.657-9.132-1.159-18.273-1.727-27.41c-18.922,0.642-37.848,1.039-56.756,1.173
	c-9.172-0.007-18.347-0.076-27.521-0.173c-0.698,11.75-1.375,23.502-2.219,35.243c-0.846-11.752-1.524-23.513-2.223-35.275
	c-28.424-0.35-56.845-1.225-85.23-2.695c0.095,12.691,0.188,25.378,0.219,37.97c-2.169-12.71-3.992-25.462-5.646-38.232
	c-23.985-1.312-47.938-3.111-71.841-5.467c0.435,10.528,0.865,21.038,1.274,31.5c-2.157-10.429-4.127-21.155-6.001-32.001
	c-16.316-1.661-32.609-3.565-48.867-5.801c3.277,22.328,7.265,37.854,11.776,42.366
	C630.585,723.682,1086.254,729.62,1114.594,699.929z"/>
<path style="fill:#252F6C;" d="M642.935,657.566c-3.218-19.311-5.951-39.158-8.117-59.358c-14.698-1.589-29.381-3.321-44.03-5.385
	c14.447,0.16,28.995,0.311,43.529,0.462c-2.584-25.257-4.263-50.961-4.858-76.718c-12.907-1.445-25.803-3.004-38.671-4.818
	c12.793,0.142,25.685,0.274,38.548,0.41c-0.366-20.009-0.026-39.99,1.014-59.778c-10.825-1.364-21.637-2.844-32.425-4.518
	c10.84,0.185,21.765,0.328,32.656,0.489c1.453-25.132,4.121-49.863,8.18-73.802c-10.898-1.371-21.782-2.858-32.642-4.543
	c11.054,0.188,22.192,0.335,33.299,0.499c2.858-16.168,6.309-31.979,10.509-47.236c-1.578,15.694-2.818,31.482-3.791,47.336
	c23.593,0.335,47.258,0.618,71.023,0.806c2.282-18.815,5.167-37.552,8.983-56.14c-0.676,18.618-1.121,37.384-1.459,56.212
	c28.194,0.201,56.479,0.225,84.777,0.148c1.052-21.759,2.271-43.509,3.836-65.238c-101.237,1.45-192.282,7.264-206.459,17.449
	c-26.737,19.207-25.758,237.723-11.848,333.215C610.912,657.233,626.91,657.403,642.935,657.566z"/>
<path style="fill:#252F6C;" d="M817.29,371.605c26.689-0.101,53.377-0.308,80.03-0.723c0.979-21.567,2.168-43.124,3.652-64.664
	c-28.976-0.298-58.654-0.24-87.521,0.172C815.017,328.112,816.237,349.855,817.29,371.605z"/>
<path style="fill:#252F6C;" d="M978.127,379.076c2.626,22.377,4.584,44.837,6.077,67.328c22.011-0.721,43.93-1.59,65.75-2.616
	c-0.809-24.511-1.746-48.959-2.993-73.223C1024.112,374.126,1001.151,376.894,978.127,379.076z"/>
<path style="fill:#252F6C;" d="M713.304,593.991c-1.51-23.477-2.434-46.996-2.937-70.521c-22.258-1.343-44.483-3.131-66.665-5.393
	c0.456,25.14,1.224,50.275,2.145,75.33C668.26,593.632,690.745,593.836,713.304,593.991z"/>
<path style="fill:#252F6C;" d="M902.225,306.232c1.482,21.491,2.669,42.999,3.649,64.518c20.86-0.354,41.678-0.832,62.447-1.415
	c-0.766-21.737-1.527-42.487-2.3-61.793C945.623,306.901,924.142,306.465,902.225,306.232z"/>
<path style="fill:#252F6C;" d="M908.42,448.374c20.914-0.392,41.773-0.911,62.586-1.539c-0.792-22.815-1.556-45.258-2.311-66.875
	c-20.705,1.808-41.454,3.151-62.223,4.061C907.344,405.466,908.044,426.917,908.42,448.374z"/>
<path style="fill:#252F6C;" d="M724.038,449.369c27.516,0.174,55.102,0.196,82.707,0.1c0.432-21.348,1.169-42.688,2.093-64.021
	c-28.118-0.373-56.237-1.281-84.301-2.988C724.205,404.677,724.041,426.984,724.038,449.369z"/>
<path style="fill:#252F6C;" d="M710.105,511.436c-0.05-17.15,0.138-34.334,0.649-51.512c-22.512-1.453-44.979-3.457-67.389-6.034
	c-0.177,19.444-0.087,38.926,0.227,58.418c22.111,0.225,44.292,0.424,66.545,0.582C710.129,512.406,710.113,511.921,710.105,511.436
	z"/>
<path style="fill:#252F6C;" d="M908.535,461.356c0.219,17.029,0.278,34.06,0.185,51.091c21.573-0.317,43.105-0.754,64.584-1.314
	c-0.675-18.133-1.322-36.318-1.952-54.334C950.455,458.804,929.509,460.3,908.535,461.356z"/>
<path style="fill:#252F6C;" d="M807.599,594.24c-0.707-22.429-1.122-44.865-1.29-67.304c-27.317-0.388-54.627-1.243-81.905-2.678
	c0.22,23.303,0.486,46.578,0.763,69.797C752.592,594.221,780.084,594.274,807.599,594.24z"/>
<path style="fill:#252F6C;" d="M806.184,513.169c-0.043-16.593,0.065-33.184,0.319-49.775c-27.511-0.29-55.024-1.148-82.493-2.682
	c0.031,17.404,0.134,34.832,0.28,52.265C751.535,513.144,778.848,513.199,806.184,513.169z"/>
<path style="fill:#252F6C;" d="M894.607,526.213c-17.166,0.534-34.335,0.898-51.489,1.02c-7.557-0.006-15.117-0.077-22.675-0.143
	c-0.169,22.381-0.582,44.76-1.288,67.131c25.643-0.064,51.279-0.229,76.892-0.555C895.272,571.188,894.841,548.701,894.607,526.213z
	"/>
<path style="fill:#252F6C;" d="M643.423,448.543c22.506,0.31,45.078,0.572,67.737,0.746c0.864-22.532,2.374-45.035,4.795-67.434
	c-23.411-1.558-46.778-3.69-70.075-6.479C644.478,399.637,643.713,424.051,643.423,448.543z"/>
<path style="fill:#252F6C;" d="M843.119,385.668c-8.398,0.014-16.799-0.04-25.2-0.116c0.922,21.284,1.655,42.574,2.088,63.873
	c24.938-0.131,49.875-0.346,74.771-0.757c0.371-21.426,1.063-42.845,1.931-64.257C878.846,385.087,860.977,385.514,843.119,385.668z
	"/>
<path style="fill:#252F6C;" d="M834.924,463.524c-4.89,0.008-9.782-0.045-14.673-0.067c0.252,16.561,0.362,33.124,0.319,49.688
	c24.65-0.066,49.291-0.23,73.912-0.537c-0.093-16.849-0.034-33.697,0.178-50.544C874.752,462.889,854.83,463.353,834.924,463.524z"
	/>
<path style="fill:#27224F;" d="M812.579,949.856c16.366,52.292,68.36,90.792,123.152,91.19l0.712,0.002
	c54.533-0.063,106.611-37.823,123.54-89.686c0.584-1.797-0.399-3.726-2.195-4.309c-1.797-0.585-3.726,0.398-4.309,2.195
	c-15.827,48.879-65.674,85.022-117.036,84.959l-0.671-0.002c-51.6-0.25-101.369-37.102-116.662-86.385
	c-0.563-1.803-2.48-2.809-4.283-2.247C813.022,946.135,812.017,948.052,812.579,949.856L812.579,949.856z"/>
<path style="fill:#DCEBF5;" d="M1338.902,244.307c-4.628-40.355-31.359-16.938-47.849-0.115
	c-24.148,24.637-40.044,51.082-46.692,85.488c-1.614,8.354-2.622,16.77-3.329,25.212c4.008,42.706,9.056,95.911,9.061,135.225
	c0,6.794-0.153,13.178-0.485,19.038c-0.102,1.79-1.575,3.136-3.335,3.182c1.711,52.512,1.22,105.094-1.505,157.563
	c1.677,0.262,2.959,1.68,2.909,3.421c-0.781,27.156-2.244,54.293-4.389,81.376c-1.747,21.929-4.103,44.533-12.419,65.446
	c-1.18,8.826-2.411,17.646-3.717,26.454c-0.462,3.118-0.91,6.427,0.34,9.321c1.704,3.942,6.051,5.988,10.172,7.192
	c30.838,9.009,64.103-11.783,80.003-39.699c15.9-27.916,18.532-61.193,20.697-93.247
	C1349.29,568.348,1357.385,405.435,1338.902,244.307z"/>
<path style="fill:#DCEBF5;" d="M1263.35,182.358c-8.592-3.71-18.186-4.155-27.538-4.517c-132.667-5.131-265.487-4.26-398.252-3.387
	c-75.399,0.496-151.258,1.033-225.424,14.623c-6.639,1.217-13.657,2.739-18.498,7.441c-3.967,3.855-5.885,9.297-7.674,14.532
	c-6.156,18.008-11.377,40.541,2.147,53.93c10.127,10.028,26.211,9.858,40.438,9.018c85.071-5.022,170.15-10.412,255.346-12.757
	c0.154-1.643,1.417-2.995,3.117-3.108c59.891-3.959,119.914-5.941,179.937-5.941c32.063,0,64.126,0.564,96.171,1.696
	c10.963,0.391,22.793,1.185,33.791,4.158c7.274,1.965,14.216,4.961,20.205,9.46c17.242-7.221,32.312-20.436,48.128-36.715
	c7.522-7.743,15.586-16.88,14.841-27.648C1279.437,193.808,1271.94,186.067,1263.35,182.358z"/>
<path style="fill:#27224F;" d="M1247.677,673.321c0.05-1.741-1.232-3.159-2.909-3.421c-0.141-0.022-0.265-0.091-0.412-0.096
	c-1.888-0.054-3.462,1.432-3.517,3.321c-0.777,27.041-2.234,54.063-4.37,81.031c-1.868,23.719-4.427,47.547-14.038,68.544
	c-5.404,11.848-13.333,22.748-24.203,28.695c-6.953,3.829-15.151,5.655-23.556,7.301c-37.147,7.314-74.837,11.871-112.657,13.62
	c-1.887,0.087-3.347,1.688-3.259,3.575c0.087,1.887,1.688,3.346,3.575,3.259l-0.001-0.001c38.158-1.765,76.183-6.362,113.662-13.742
	c8.481-1.679,17.392-3.562,25.527-8.016c12.728-7.01,21.348-19.209,27.134-31.848c0.812-1.779,1.496-3.595,2.215-5.401
	c8.316-20.913,10.672-43.517,12.419-65.446C1245.433,727.614,1246.896,700.477,1247.677,673.321z"/>
<path style="fill:#27224F;" d="M1163.12,253.889c-32.045-1.132-64.109-1.696-96.171-1.696c-60.023,0-120.045,1.981-179.937,5.941
	c-1.699,0.112-2.963,1.465-3.117,3.108c-0.016,0.18-0.083,0.345-0.071,0.531c0.125,1.885,1.754,3.311,3.64,3.187l-0.001,0
	c52.608-3.478,105.319-5.334,158.039-5.749c7.149-0.057,14.298-0.177,21.447-0.177c31.983,0,63.966,0.563,95.93,1.691
	c10.794,0.376,22.153,1.186,32.244,3.924c5.078,1.378,9.798,3.223,14.015,5.706c4.182,2.463,7.865,5.552,10.892,9.45
	c7.901,10.094,9.726,24.281,10.828,38.309c3.59,44.307,12.401,120.645,12.395,172.003c0,6.691-0.15,12.953-0.475,18.649
	c-0.108,1.886,1.334,3.502,3.221,3.61c0.096,0.005,0.18-0.037,0.275-0.039c1.76-0.046,3.232-1.392,3.335-3.182
	c0.332-5.86,0.485-12.244,0.485-19.038c-0.005-39.313-5.054-92.519-9.061-135.225c-1.296-13.813-2.485-26.544-3.356-37.329
	c-0.978-11.762-2.345-24.514-8.19-35.514c0.423-0.178,0.818-0.437,1.155-0.791h-0.001c28.024-29.543,57.64-57.577,88.675-83.94
	c1.439-1.223,1.615-3.382,0.392-4.821c-1.223-1.44-3.381-1.615-4.821-0.392c-31.138,26.451-60.852,54.576-88.979,84.21
	c-0.171-0.229-0.299-0.477-0.475-0.704c-2.453-3.159-5.27-5.813-8.317-8.103c-5.989-4.499-12.931-7.495-20.205-9.46
	C1185.913,255.074,1174.083,254.28,1163.12,253.889z"/>
<path style="fill:#FFFFFF;" d="M698.581,239.475c121.129-11.436,243.105-13.458,364.538-5.83c33.112,2.08,66.39,5.751,99.496,1.673
	c6.11-0.753,11.401-4.702,11.401-11.401c0-5.577-5.248-12.158-11.401-11.401c-29.452,3.627-58.991,1.037-88.46-0.954
	c-30.344-2.049-60.729-3.503-91.13-4.359c-60.802-1.713-121.673-1.026-182.421,2.047c-34.058,1.723-68.072,4.219-102.022,7.424
	c-6.13,0.579-11.4,4.826-11.4,11.401C687.181,233.791,692.415,240.057,698.581,239.475z"/>
<path style="fill:#FFFFFF;" d="M1334.851,639.708c-1.293-107.923-5.527-215.797-12.699-323.489
	c-0.969-14.566-23.779-14.674-22.801,0c7.171,107.692,11.405,215.566,12.698,323.489
	C1312.224,654.37,1335.027,654.409,1334.851,639.708z"/>
<path style="fill:#DCEBF5;" d="M651.996,1041.56c9.827,2.738,20.166,2.891,30.367,2.892c37.587,0.007,75.174-1.779,112.591-5.349
	c3.914-0.374,8.08-0.868,11.112-3.373c5.814-4.805,4.459-13.917,2.467-21.192c-4.809-17.576-10.246-34.98-16.296-52.169
	c-2.061-5.855-4.342-11.916-8.881-16.149c-8.05-7.509-20.479-7.066-31.419-5.845c-39.072,4.361-93.834,9.105-127.727,30.735
	C591.413,992.042,624.674,1033.946,651.996,1041.56z"/>
<path style="fill:#DCEBF5;" d="M1237.708,983.674c-3.127-8.418-10.958-14.172-18.992-18.186
	c-17.598-8.794-37.514-11.502-57.017-14.086c-18.627-2.469-54.718-15.201-70.678-1.024c-7.798,6.927-10.791,20.432-15.572,29.297
	c-6.169,11.439-13.965,21.279-21.721,31.619c-4.073,4.741-8.482,9.403-10.837,15.194c-2.355,5.791-2.155,13.143,2.304,17.525
	c2.874,2.825,6.962,3.96,10.878,4.912c38.42,9.344,78.355,11.171,117.849,9.237c9.264-0.453,18.751-1.167,27.202-4.992
	c15.095-6.832,24.236-22.242,31.326-37.218C1237.247,1005.819,1241.611,994.183,1237.708,983.674z"/>
<path style="fill:#27224F;" d="M366.857,1537.051c-2.625,2.402-7.169,7.036-12.824,13.067
	c-27.724,29.57-82.79,93.545-76.717,102.093c5.778,8.132,16.945-1.215,21.39-5.504c-6.713,6.892-29.003,30.65-23.557,36.946
	c6.388,7.387,30.096-10.083,30.096-10.083s-25.735,24.842-18.514,30.619c7.22,5.776,32.47-16.894,32.47-16.894
	s-15.669,15.247-8.059,22.244c7.609,6.998,100.934-71.314,100.934-71.314s13.445,54.929,30.606,45.431
	c12.344-6.832,6.107-60.659,0.041-95.344c-2.368-13.537-4.708-24.16-5.909-27.933
	C432.536,1546.938,382.359,1522.866,366.857,1537.051z"/>
<path style="fill:#FFFFFF;" d="M406.128,1384.792c18.11-52.063,37.08-104.766,64.29-152.892c6.062-10.72,13.54-22.71,20.473-31.597
	c2.434-3.12,6.787-8.176,10.311-11.744c1.779-1.8,3.612-3.545,5.519-5.209c0.703-0.614,1.424-1.208,2.147-1.801
	c0.212-0.144,1.711-1.301,2.128-1.596c5.408-3.83,7.966-10.73,4.408-16.813c-3.128-5.349-11.369-8.264-16.813-4.409
	c-17.789,12.597-31.005,30.498-42.366,48.862c-14.127,22.834-25.599,47.287-36.137,71.945
	c-21.952,51.369-39.703,104.328-57.538,157.225c-3.703,10.98-7.407,21.962-11.314,32.871c-1.559,4.35-3.147,8.691-4.825,12.996
	c-0.656,1.681-1.339,3.35-2.015,5.022c-0.037,0.082-0.056,0.124-0.101,0.223c-0.356,0.788-0.704,1.58-1.066,2.365
	c-2.779,6.022-1.706,13.236,4.408,16.813c5.301,3.101,14.02,1.646,16.813-4.408c7.067-15.32,12.338-31.49,17.767-47.439
	C390.206,1431.741,397.984,1408.204,406.128,1384.792z"/>
<path style="fill:#C5DCEA;" d="M1392.66,1108.36c-12.487-12.977-25.188-23.397-37.938-30.386
	c-25.269-13.851-37.622,99.715-37.252,144.255c0.091,11.012,7.917,52.621,19.138,103.341c21.443,96.93,55.286,227.139,71.25,240.691
	c7.098,6.026,22.756,6.115,41.548,2.271c2.368-13.538,4.71-24.161,5.91-27.934c4.278-13.44,54.454-37.512,69.955-23.328
	c2.626,2.403,7.17,7.036,12.824,13.067c14.431-10.315,24.794-21.445,27.025-31.968
	C1572.6,1463.084,1489.081,1208.566,1392.66,1108.36z"/>
<path style="fill:#27224F;" d="M1593.422,1626.924c4.443,4.288,15.612,13.639,21.391,5.506
	c6.073-8.548-48.994-72.523-76.718-102.092c-5.654-6.031-10.198-10.664-12.824-13.067c-15.502-14.185-65.678,9.887-69.955,23.328
	c-1.2,3.773-3.542,14.396-5.91,27.934c-6.066,34.685-12.302,88.511,0.041,95.343c17.162,9.499,30.606-45.431,30.606-45.431
	s93.325,78.312,100.935,71.314c7.609-6.998-8.059-22.245-8.059-22.245s25.248,22.669,32.469,16.894
	c7.22-5.776-18.514-30.619-18.514-30.619s23.708,17.47,30.096,10.083C1622.426,1657.575,1600.133,1633.815,1593.422,1626.924z"/>
<path style="fill:#FFFFFF;" d="M1381.133,1160.173c0.62,0.44,1.233,0.89,1.844,1.344c0.302,0.245,0.905,0.732,1.243,1.03
	c1.738,1.531,3.474,3.052,5.135,4.669c3.458,3.365,6.689,6.96,9.758,10.682c2.68,3.253,5.248,6.713,8.422,11.335
	c3.284,4.781,6.396,9.677,9.381,14.648c13.663,22.757,24.948,46.967,35.233,71.409c20.921,49.717,37.776,101.014,55.031,152.078
	c6.294,18.626,12.25,37.614,20.498,55.495c2.781,6.026,11.48,7.528,16.813,4.409c6.185-3.618,7.199-10.764,4.409-16.813
	c-0.402-0.873-0.784-1.753-1.171-2.632c0.442,0.973-1.006-2.424-1.397-3.414c-1.466-3.699-2.855-7.429-4.216-11.168
	c-3.381-9.294-6.576-18.655-9.752-28.02c-8.256-24.344-16.344-48.745-24.851-73.004c-18.672-53.247-38.356-107.411-66.788-156.357
	c-12.347-21.255-26.879-42.531-47.189-56.913c-5.419-3.838-13.669-0.967-16.813,4.408
	C1373.124,1149.516,1375.702,1156.327,1381.133,1160.173z"/>
<path style="fill:#27224F;" d="M1505.108,1484.485c2.986,0,5.97,0.221,8.938,0.683c1.341,0.209,2.597-0.708,2.807-2.049
	c0.21-1.341-0.708-2.598-2.049-2.807h-0.001c-3.229-0.503-6.468-0.742-9.695-0.742c-16.934,0.009-33.532,6.524-47.486,15.892
	c-2.398,1.612-4.712,3.32-6.983,5.077c-9.565-24.794-35.989-82.823-61.55-140.446c-13.06-29.438-25.874-58.723-36.042-83.279
	c-10.165-24.531-17.699-44.445-20.124-54.728c-0.313-1.321-1.637-2.138-2.958-1.825c-1.321,0.313-2.138,1.637-1.825,2.958
	c2.607,10.965,10.164,30.823,20.365,55.476c15.296,36.939,36.508,84.423,55.571,127.108c18.988,42.512,35.856,80.306,42.541,97.957
	c-11.728,9.739-21.968,21.125-32.016,32.332c-0.906,1.011-0.821,2.564,0.19,3.471c1.011,0.906,2.565,0.821,3.471-0.19
	c13.059-14.581,26.186-29.149,42.1-39.83C1473.698,1490.577,1489.46,1484.477,1505.108,1484.485z"/>
<path style="fill:#27224F;" d="M1086.738,1269.107c-10.724-19.851-14.902-43.233-29.038-58.281
	c-26.947-28.688-74.458-41.484-157.704-41.484c-63.862,0-113.617,7.094-140.039,26.994c-26.089,19.647-36.391,56.221-45.181,79.155
	c-19.903,51.926,26.13,86.611,182.915,86.611C1059.086,1362.102,1118.769,1328.397,1086.738,1269.107z"/>
<path style="fill:#47BCCA;" d="M1072.677,1260.838c-9.541-16.545-13.258-36.032-25.833-48.574
	c-23.974-23.909-66.242-34.574-140.302-34.574c-56.815,0-101.079,5.911-124.586,22.497c-23.209,16.375-32.375,46.858-40.196,65.972
	c-17.707,43.277,23.247,72.186,162.731,72.186C1048.076,1338.345,1101.173,1310.253,1072.677,1260.838z"/>
<path style="fill:#7AC9D4;" d="M870.018,1186.187c-79.058,0-95.271,34.17-115.38,70.647
	c-17.683,32.079,16.278,57.642,113.943,57.642c100.537,0,142.668-25.473,117.763-61.891
	C958.439,1211.777,949.075,1186.187,870.018,1186.187z"/>
</svg>
